<?xml version="1.0" encoding="UTF-8"?>
<!DOCTYPE svg PUBLIC "-//W3C//DTD SVG 1.1//EN" "http://www.w3.org/Graphics/SVG/1.1/DTD/svg11.dtd">
<!-- Creator: CorelDRAW X7 -->
<svg xmlns="http://www.w3.org/2000/svg" xml:space="preserve" width="6.1674mm" height="7.173mm" version="1.1" style="shape-rendering:geometricPrecision; text-rendering:geometricPrecision; image-rendering:optimizeQuality; fill-rule:evenodd; clip-rule:evenodd"
viewBox="0 0 617 717"
 xmlns:xlink="http://www.w3.org/1999/xlink">
 <defs>
  <style type="text/css">
   <![CDATA[
    .fil0 {fill:black}
   ]]>
  </style>
 </defs>
 <g id="Layer_x0020_1">
  <metadata id="CorelCorpID_0Corel-Layer"/>
  <path class="fil0" d="M223 496c-8,12 -39,11 -62,-6 -36,-26 -70,-78 -91,-96 -21,-18 -52,-31 -54,-40 -3,-11 34,-17 93,-31 23,-6 24,24 42,83 5,16 13,35 20,51 6,13 17,22 27,29 8,5 26,7 25,10z"/>
  <path class="fil0" d="M401 442c-31,24 -107,46 -149,46 -53,0 -69,-24 -86,-73 -11,-32 -20,-68 -35,-98 -7,-14 -18,-31 -32,-39 -15,-9 47,-3 70,12 8,4 13,10 13,9 -13,-34 -98,-34 -136,-25 -8,2 -44,12 -46,-3 -6,-59 93,-53 132,-38 57,22 105,58 153,95 49,36 61,39 111,62 20,9 22,40 5,52z"/>
  <path class="fil0" d="M427 426c-5,-6 -5,-25 -7,-35 -1,-3 -1,-4 4,-10 5,-5 24,-29 29,-32 23,-13 28,-19 41,-43 14,-27 24,-57 38,-83 10,-18 67,46 76,62 33,56 -34,80 -70,108 -16,12 -38,39 -56,43 -14,4 -44,3 -55,-10z"/>
  <path class="fil0" d="M303 319c10,-16 41,-32 58,-41 19,-10 34,-18 51,-32 3,-3 4,-3 6,2 16,32 36,70 14,103 -4,7 -20,33 -29,29 -19,-7 -39,-15 -56,-25 -7,-4 -49,-27 -44,-36z"/>
  <path class="fil0" d="M204 255c-45,-16 -60,-37 -118,-40 -16,0 -43,5 -51,-12 -31,-60 48,-86 90,-91 75,-11 104,-90 159,-110 23,-9 41,18 44,37 2,9 -12,28 -18,36 -7,11 -40,1 -68,11 -12,5 -44,54 -46,54 -17,-1 -45,-7 -38,24 5,23 21,39 35,57 2,2 28,40 11,34z"/>
  <path class="fil0" d="M222 265c-1,-5 -1,-12 -2,-18 -5,-21 -34,-49 -46,-69 -4,-6 -8,-16 -6,-23 4,-13 21,-6 29,-2 34,18 59,32 84,37 45,9 105,-29 104,-23 -10,34 -33,55 -58,78 -14,14 -45,42 -54,58 -1,3 -50,-29 -51,-38z"/>
  <path class="fil0" d="M470 318c21,-30 83,-155 89,-193 6,-36 -22,-51 -53,-56 -26,-5 -53,-4 -78,-12 -26,-8 -62,-42 -85,-16 -10,12 -19,30 -28,44 -5,9 -46,5 -60,8 -21,5 -35,31 -45,48 -6,9 23,26 22,20 -2,-23 18,-34 37,-42 26,-11 57,-18 86,-16 7,0 22,-12 30,-16 18,-10 70,4 76,13 1,0 1,2 0,3 -1,3 -23,-5 -26,-5 -23,-7 -45,-15 -62,9 0,0 19,30 21,34 12,34 -21,70 -43,92 -6,7 -70,76 -71,76 -1,0 7,16 13,9 11,-14 22,-22 38,-32 23,-15 53,-27 72,-47 19,-19 41,-78 36,-104 -3,-13 -8,-19 -20,-26 -10,-6 26,-11 27,36 1,26 -25,91 -23,95 1,3 3,8 4,11 4,6 38,-40 42,-45 19,-24 48,-57 30,-88 -3,-6 -7,-11 -9,-13 -6,-7 20,-2 22,28 5,55 -84,118 -76,134 15,36 11,38 12,71 1,4 20,-17 22,-20z"/>
  <path class="fil0" d="M369 161c0,3 11,-3 13,-5 6,-2 2,-13 0,-18 -4,-9 -11,-16 -17,-24 -4,-6 -55,1 -63,3 -14,3 -46,15 -55,25 -12,14 -6,20 9,29 24,14 60,11 86,1 17,-6 30,-49 -41,-12 -15,8 28,-35 52,-29 15,4 15,17 16,30z"/>
  <path class="fil0" d="M382 464c36,-16 58,-26 31,46 -3,8 -19,23 -21,32 -9,38 4,82 15,151 1,4 -36,24 -36,24 -7,-10 -13,-26 -18,-50 -11,-49 -3,-105 -31,-116 -41,-16 -76,-50 -78,-52 0,0 84,-10 138,-35z"/>
  <path class="fil0" d="M426 445c0,0 61,-2 70,6 21,18 20,82 79,100 10,3 15,1 9,2 -83,17 -123,-44 -158,-108z"/>
  <path class="fil0" d="M271 537c0,0 -37,-38 -45,-33 -22,17 -36,106 -95,124 -11,3 -15,0 -9,2 83,17 114,-29 149,-93z"/>
 </g>
</svg>
